<?xml version="1.0" standalone="no"?>
<!DOCTYPE svg PUBLIC "-//W3C//DTD SVG 20010904//EN"
 "http://www.w3.org/TR/2001/REC-SVG-20010904/DTD/svg10.dtd">
<svg version="1.0" xmlns="http://www.w3.org/2000/svg"
 width="320.000000pt" height="320.000000pt" viewBox="0 0 320.000000 320.000000"
 preserveAspectRatio="xMidYMid meet">
<metadata>
Created by potrace 1.14, written by Peter Selinger 2001-2017
</metadata>
<g transform="translate(0.000000,320.000000) scale(0.100000,-0.100000)"
fill="#000000" stroke="none">
<path d="M2303 3138 c-123 -189 -173 -365 -173 -608 l0 -128 38 -6 c20 -3 60
-7 87 -8 l50 -3 5 172 c3 95 9 175 12 178 3 4 88 -73 187 -171 l181 -177 53
12 c96 21 103 9 -146 259 l-229 229 27 54 c15 29 39 70 53 92 l26 38 -65 65
-65 64 -41 -62z"/>
<path d="M3035 2449 c-67 -45 -174 -92 -259 -114 -138 -35 -241 -39 -516 -20
-436 31 -613 14 -799 -75 -112 -54 -189 -111 -287 -211 -143 -148 -225 -299
-265 -494 -21 -100 -37 -369 -23 -377 5 -3 46 -9 91 -13 l81 -7 7 151 c4 83
10 151 14 151 3 0 74 -67 156 -150 82 -83 156 -150 164 -150 8 0 43 5 78 11
l64 11 -205 208 c-125 127 -208 219 -212 236 -5 18 0 41 16 73 32 66 102 171
115 171 5 0 144 -134 308 -298 l299 -299 -50 -36 c-67 -50 -180 -102 -277
-129 -75 -20 -96 -21 -355 -18 -503 7 -628 5 -723 -14 -121 -23 -241 -68 -339
-127 -121 -73 -119 -68 -62 -129 26 -28 55 -55 64 -60 10 -6 36 4 80 31 85 51
210 95 324 115 77 14 128 15 341 8 506 -18 646 -9 818 52 290 104 544 381 618
674 22 92 40 414 23 430 -5 4 -45 11 -89 15 l-80 7 -1 -157 c-1 -86 -6 -161
-11 -166 -6 -6 -74 53 -184 159 l-174 168 -54 -11 c-30 -5 -56 -16 -59 -23 -2
-8 90 -109 213 -232 l218 -218 -12 -33 c-14 -42 -94 -169 -120 -193 -14 -13
-24 -15 -38 -8 -27 15 -583 577 -583 590 0 16 118 97 191 132 131 61 167 65
454 61 620 -10 722 -8 820 17 100 25 290 114 345 161 l35 30 -60 60 c-33 34
-62 61 -65 61 -3 0 -18 -9 -35 -21z"/>
<path d="M897 663 c-6 -156 -12 -203 -27 -203 -4 0 -89 79 -188 176 l-181 175
-43 -11 c-82 -21 -79 -19 -67 -43 6 -12 108 -119 226 -238 l215 -216 -18 -34
c-9 -19 -32 -58 -51 -88 l-35 -54 65 -65 64 -64 51 78 c109 165 161 341 169
573 5 125 3 155 -8 162 -8 5 -48 9 -90 9 l-76 0 -6 -157z"/>
</g>
</svg>
