<?xml version="1.0" standalone="no"?>
<!DOCTYPE svg PUBLIC "-//W3C//DTD SVG 20010904//EN"
 "http://www.w3.org/TR/2001/REC-SVG-20010904/DTD/svg10.dtd">
<svg version="1.0" xmlns="http://www.w3.org/2000/svg"
 width="320.000000pt" height="320.000000pt" viewBox="0 0 320.000000 320.000000"
 preserveAspectRatio="xMidYMid meet">
<metadata>
Created by potrace 1.14, written by Peter Selinger 2001-2017
</metadata>
<g transform="translate(0.000000,320.000000) scale(0.100000,-0.100000)"
fill="#000000" stroke="none">
<path d="M2309 3138 c-51 -69 -126 -236 -151 -333 -25 -98 -27 -198 -17 -820
4 -287 0 -323 -61 -454 -35 -74 -116 -191 -132 -191 -13 0 -574 555 -590 583
-7 14 -5 24 8 38 24 26 151 106 193 120 l33 12 218 -218 c123 -123 224 -215
232 -213 7 3 18 29 24 59 l10 54 -168 174 c-105 109 -165 178 -159 184 5 5 80
10 166 11 l157 1 -7 80 c-4 44 -11 84 -15 89 -16 17 -338 -1 -430 -23 -290
-73 -566 -324 -671 -611 -64 -176 -73 -313 -55 -825 7 -213 6 -264 -8 -341
-20 -114 -64 -239 -115 -324 -27 -44 -37 -70 -31 -80 15 -28 110 -111 120
-105 20 12 103 159 137 241 19 47 44 130 55 183 23 105 25 222 18 746 -3 253
-2 275 18 350 25 92 85 220 132 284 l32 44 299 -299 c164 -164 299 -304 299
-309 0 -13 -105 -83 -171 -115 -32 -16 -55 -21 -73 -16 -17 4 -108 86 -232
208 -112 111 -207 199 -210 196 -3 -3 -10 -36 -16 -73 l-11 -67 151 -151 c84
-84 152 -155 152 -158 0 -4 -68 -10 -151 -14 l-151 -7 7 -81 c4 -45 10 -86 13
-91 8 -14 277 2 377 23 194 40 346 121 494 265 100 98 157 175 211 287 89 186
106 363 75 799 -10 152 -14 279 -10 335 13 163 63 316 143 437 l25 39 -59 60
c-32 32 -62 59 -66 59 -4 0 -22 -19 -39 -42z"/>
<path d="M2411 2777 c-6 -18 -12 -49 -14 -68 -2 -34 7 -45 171 -213 95 -98
170 -181 167 -184 -3 -3 -83 -9 -178 -12 l-172 -5 3 -60 c2 -33 5 -72 8 -87
l6 -28 127 0 c247 0 451 60 626 184 l44 32 -64 64 -64 63 -38 -25 c-22 -14
-63 -38 -92 -53 l-54 -27 -226 226 c-125 124 -230 226 -233 226 -4 0 -11 -15
-17 -33z"/>
<path d="M476 1054 c-156 -28 -354 -111 -448 -187 l-28 -23 64 -63 63 -63 54
35 c30 19 69 42 88 51 l33 18 228 -226 c125 -124 232 -226 238 -226 10 0 21
30 36 100 5 22 -17 49 -169 204 -96 99 -175 183 -175 187 0 14 49 20 203 26
l157 6 0 73 c0 110 8 104 -139 103 -69 0 -162 -7 -205 -15z"/>
</g>
</svg>
